<?xml version="1.0" encoding="utf-8"?>
<svg version="1.1" xmlns:xlink="http://www.w3.org/1999/xlink" width="511px" height="454px" xmlns="http://www.w3.org/2000/svg">
  <defs>
    <filter x="1382px" y="218px" width="511px" height="454px" filterUnits="userSpaceOnUse" id="filter5">
      <feOffset dx="1" dy="1" in="SourceAlpha" result="shadowOffsetInner" />
      <feGaussianBlur stdDeviation="3" in="shadowOffsetInner" result="shadowGaussian" />
      <feComposite in2="shadowGaussian" operator="atop" in="SourceAlpha" result="shadowComposite" />
      <feColorMatrix type="matrix" values="0 0 0 0 0.227450980392157  0 0 0 0 0.443137254901961  0 0 0 0 0.866666666666667  0 0 0 1 0  " in="shadowComposite" />
    </filter>
    <g id="widget6">
      <path d="M 1388 226  A 2 2 0 0 1 1390 224 L 1883 224  A 2 2 0 0 1 1885 226 L 1885 662  A 2 2 0 0 1 1883 664 L 1390 664  A 2 2 0 0 1 1388 662 L 1388 226  Z " fill-rule="nonzero" fill="#fbfbfb" stroke="none" />
      <path d="M 1387.5 226  A 2.5 2.5 0 0 1 1390 223.5 L 1883 223.5  A 2.5 2.5 0 0 1 1885.5 226 L 1885.5 662  A 2.5 2.5 0 0 1 1883 664.5 L 1390 664.5  A 2.5 2.5 0 0 1 1387.5 662 L 1387.5 226  Z " stroke-width="1" stroke="#f2f2f2" fill="none" stroke-opacity="0.329411764705882" />
    </g>
  </defs>
  <g transform="matrix(1 0 0 1 -1382 -218 )">
    <use xlink:href="#widget6" filter="url(#filter5)" />
    <use xlink:href="#widget6" />
  </g>
</svg>